<?xml version="1.0" encoding="UTF-8"?>
<svg id="Layer_1" data-name="Layer 1" xmlns="http://www.w3.org/2000/svg" viewBox="0 0 242.74 216.37">
  <defs>
    <style>
      .cls-1 {
        fill: #fff;
      }
    </style>
  </defs>
  <path class="cls-1" d="M193.82,168.94l-78.98.05c.11-1.08.85-2.74,1.89-3.98h74.33s-41.11-95.33-41.11-95.33l-3.38,6.57,32.08,77.5-56.63.07.16-2.2,50.69-.02-11.16-28.3-35.04.04-16.46,38.45-18.49,43.05-51.7-120.73L8.04,9.23l27.46.03,50.31,114.75.27-114.77h148.6s.02,197.87.02,197.87l-135.82.04,1.09-4.14,127.96-.02-12.92-16.56-107.66-.03,1.3-3.91,101.41-.07-16.25-13.48ZM101.34,170.89L32.78,13.48l-18.07.02,77.1,180.42,9.53-23.02ZM214.31,29.64l13.47-16.29H93.2s13.65,16.37,13.65,16.37l107.45-.08ZM166.59,79.71l-2.18-5.59,10.17-23.32h-47.52s.05,41.83.05,41.83l-2.83,5.57.03-48.21-16.69-14.36.02,103.3c-1.07,3.11-2.17,5.94-4.23,8.97l-.07-116.11-13.17-15.24-.03,117.41,13.78,31.25,45.74-107.35,46.47,108.03,17.22,13.83-.11-143.31-12.62,12.43-23.45,54.6c-2.99-1.54-2.64-4.37-1.48-7.07l19.5-45.51h-16.11s-12.5,28.83-12.5,28.83ZM217.46,183.29l13.06,15.99-.04-182.37-13.06,15.31.04,151.07ZM197.45,47.06l12.68-13.41-99.01.02c5.17,4.91,9.99,9.09,15.4,13.52l70.93-.13ZM159.64,119.12l-15.2-37.25-16.05,37.21,31.25.04Z"/>
</svg>